<?xml version="1.0" encoding="UTF-8"?> <svg xmlns="http://www.w3.org/2000/svg" width="28" height="29" viewBox="0 0 28 29"><g fill="#549FBA" fill-rule="evenodd" transform="translate(0 .5)"><path fill-rule="nonzero" d="M10.5,1.5 L10.5,9.51521992 C10.5,10.3432413 10.27154,11.1552093 9.83976825,11.861745 L1.67771935,25.217825 C1.53379543,25.4533369 1.4576421,25.7239929 1.4576421,26 C1.4576421,26.8284271 2.12921497,27.5 2.9576421,27.5 L25.0423579,27.5 C25.318365,27.5 25.589021,27.4238467 25.8245329,27.2799228 C26.5314147,26.8479394 26.754264,25.9247068 26.3222807,25.217825 L18.1602317,11.861745 C17.72846,11.1552093 17.5,10.3432413 17.5,9.51521992 L17.5,1.5 L10.5,1.5 Z M9.5,0.5 L18.5,0.5 L18.5,9.51521992 C18.5,10.1592366 18.6776911,10.7907673 19.0135136,11.340295 L27.1755625,24.696375 C27.8955347,25.8745113 27.5241193,27.4132324 26.3459829,28.1332046 C25.9534631,28.3730778 25.5023698,28.5 25.0423579,28.5 L2.9576421,28.5 C1.57693022,28.5 0.457642099,27.3807119 0.457642099,26 C0.457642099,25.5399881 0.584564312,25.0888948 0.824437514,24.696375 L8.98648642,11.340295 C9.3223089,10.7907673 9.5,10.1592366 9.5,9.51521992 L9.5,0.5 Z M9.5,3.55271368e-15 L18.5,3.55271368e-15 C19.0522847,3.45126062e-15 19.5,0.44771525 19.5,1 L19.5,1 C19.5,1.55228475 19.0522847,2 18.5,2 L9.5,2 C8.94771525,2 8.5,1.55228475 8.5,1 L8.5,1 C8.5,0.44771525 8.94771525,3.65416674e-15 9.5,3.55271368e-15 Z"></path><path d="M5.98339844,17.831543 C9.39485677,19.9907227 11.9449056,20.3568522 13.6335449,18.9299316 C15.3221842,17.5030111 17.8728841,16.7895508 21.2856445,16.7895508 L26.5812988,25.2512207 L26.5812988,26.692627 L25.6743164,27.795166 L4.42138672,28.0690918 L1.74755859,27.3771973 L1.09179688,26.1777344 L1.74755859,24.6247559 L5.98339844,17.831543 Z M16.5,16 C15.6715729,16 15,15.3284271 15,14.5 C15,13.6715729 15.6715729,13 16.5,13 C17.3284271,13 18,13.6715729 18,14.5 C18,15.3284271 17.3284271,16 16.5,16 Z M11.75,18 C10.7835017,18 10,17.2164983 10,16.25 C10,15.2835017 10.7835017,14.5 11.75,14.5 C12.7164983,14.5 13.5,15.2835017 13.5,16.25 C13.5,17.2164983 12.7164983,18 11.75,18 Z M13.75,13 C13.0596441,13 12.5,12.4403559 12.5,11.75 C12.5,11.0596441 13.0596441,10.5 13.75,10.5 C14.4403559,10.5 15,11.0596441 15,11.75 C15,12.4403559 14.4403559,13 13.75,13 Z M15.5,9.5 C14.9477153,9.5 14.5,9.05228475 14.5,8.5 C14.5,7.94771525 14.9477153,7.5 15.5,7.5 C16.0522847,7.5 16.5,7.94771525 16.5,8.5 C16.5,9.05228475 16.0522847,9.5 15.5,9.5 Z M13.25,7 C12.8357864,7 12.5,6.66421356 12.5,6.25 C12.5,5.83578644 12.8357864,5.5 13.25,5.5 C13.6642136,5.5 14,5.83578644 14,6.25 C14,6.66421356 13.6642136,7 13.25,7 Z" opacity=".63"></path></g></svg> 